<svg width="448" height="512" viewBox="0 0 448 512" fill="none" xmlns="http://www.w3.org/2000/svg">
<path d="M160 112C160 76.7 188.7 48 224 48C259.3 48 288 76.7 288 112V160H160V112ZM112 160H48C21.5 160 0 181.5 0 208V416C0 469 43 512 96 512H352C405 512 448 469 448 416V208C448 181.5 426.5 160 400 160H336V112C336 50.1 285.9 0 224 0C162.1 0 112 50.1 112 112V160ZM136 256C122.7 256 112 245.3 112 232C112 218.7 122.7 208 136 208C149.3 208 160 218.7 160 232C160 245.3 149.3 256 136 256ZM336 232C336 245.3 325.3 256 312 256C298.7 256 288 245.3 288 232C288 218.7 298.7 208 312 208C325.3 208 336 218.7 336 232Z" fill="white"/>
</svg>
