<svg width="384" height="512" viewBox="0 0 384 512" fill="none" xmlns="http://www.w3.org/2000/svg">
<g clip-path="url(#clip0_108_59)">
<path d="M376.6 84.5C387.9 70.9 386.1 50.7 372.5 39.4C358.9 28.1 338.7 29.9 327.4 43.5L192 206L56.6002 43.5C45.3002 29.9 25.1002 28.1 11.5002 39.4C-2.09977 50.7 -3.89977 70.9 7.40023 84.5L150.3 256L7.40023 427.5C-3.89977 441.1 -2.09977 461.3 11.5002 472.6C25.1002 483.9 45.3002 482.1 56.6002 468.5L192 306L327.4 468.5C338.7 482.1 358.9 483.9 372.5 472.6C386.1 461.3 387.9 441.1 376.6 427.5L233.7 256L376.6 84.5Z" fill="#F40404"/>
</g>
<defs>
<clipPath id="clip0_108_59">
<rect width="384" height="512" fill="white"/>
</clipPath>
</defs>
</svg>
